<svg viewBox="0 0 24 24" id="Layer_1" data-name="Layer 1" xmlns="http://www.w3.org/2000/svg" xmlns:xlink="http://www.w3.org/1999/xlink" fill="#a52a2a" stroke="#a52a2a"><g id="SVGRepo_bgCarrier" stroke-width="0"></g><g id="SVGRepo_tracerCarrier" stroke-linecap="round" stroke-linejoin="round"></g><g id="SVGRepo_iconCarrier"> <defs> <style>.cls-1{fill:none;}.cls-2{clip-path:url(#clip-path);}</style> <clipPath id="clip-path"> <rect class="cls-1" width="24" height="24"></rect> </clipPath> </defs> <title>notepad</title> <g class="cls-2"> <path d="M17.5,22.5H6.5a4,4,0,0,1-4-4V7.5a4,4,0,0,1,4-4h11a4,4,0,0,1,4,4v11A4,4,0,0,1,17.5,22.5Zm-11-17a2,2,0,0,0-2,2v11a2,2,0,0,0,2,2h11a2,2,0,0,0,2-2V7.5a2,2,0,0,0-2-2Z"></path> <path d="M8,7.5a1,1,0,0,1-1-1v-4a1,1,0,0,1,2,0v4A1,1,0,0,1,8,7.5Z"></path> <path d="M12,7.5a1,1,0,0,1-1-1v-4a1,1,0,0,1,2,0v4A1,1,0,0,1,12,7.5Z"></path> <path d="M16,7.5a1,1,0,0,1-1-1v-4a1,1,0,0,1,2,0v4A1,1,0,0,1,16,7.5Z"></path> </g> </g></svg>