<svg fill="#a52a2a" viewBox="0 0 1069 1069" style="fill-rule:evenodd;clip-rule:evenodd;stroke-linejoin:round;stroke-miterlimit:2;" version="1.1" xml:space="preserve" xmlns="http://www.w3.org/2000/svg" xmlns:serif="http://www.serif.com/" xmlns:xlink="http://www.w3.org/1999/xlink"><g id="SVGRepo_bgCarrier" stroke-width="0"></g><g id="SVGRepo_tracerCarrier" stroke-linecap="round" stroke-linejoin="round"></g><g id="SVGRepo_iconCarrier"> <rect height="1066.67" id="Power" style="fill:none;" width="1066.67" x="1.167" y="1.589"></rect> <g> <path d="M667.318,424.801c27.545,31.216 44.266,72.204 44.266,117.066c-0,97.735 -79.349,177.083 -177.084,177.083c-97.734,0 -177.083,-79.348 -177.083,-177.083c0,-45.331 17.073,-86.707 45.133,-118.042c11.506,-12.849 10.415,-32.621 -2.434,-44.127c-12.848,-11.506 -32.621,-10.415 -44.127,2.433c-37.971,42.404 -61.072,98.393 -61.072,159.736c0,132.23 107.354,239.583 239.583,239.583c132.23,0 239.584,-107.353 239.584,-239.583c-0,-60.709 -22.627,-116.176 -59.901,-158.418c-11.412,-12.933 -31.176,-14.168 -44.109,-2.756c-12.932,11.411 -14.167,31.175 -2.756,44.108Z" style="fill-opacity:0.5;"></path> <path d="M534.5,87.006c-247.211,0 -447.916,200.705 -447.916,447.917c-0,247.212 200.705,447.916 447.916,447.916c247.212,0 447.917,-200.704 447.917,-447.916c0,-247.212 -200.705,-447.917 -447.917,-447.917Zm0,62.5c212.718,0 385.417,172.699 385.417,385.417c0,212.717 -172.699,385.416 -385.417,385.416c-212.717,0 -385.416,-172.699 -385.416,-385.416c-0,-212.718 172.699,-385.417 385.416,-385.417Zm31.25,427.083l0,-250c0,-17.247 -14.002,-31.25 -31.25,-31.25c-17.247,0 -31.25,14.003 -31.25,31.25l0,250c0,17.248 14.003,31.25 31.25,31.25c17.248,0 31.25,-14.002 31.25,-31.25Z"></path> </g> </g></svg>